<?xml version="1.0" encoding="UTF-8"?>
<svg id="Layer_2" data-name="Layer 2" xmlns="http://www.w3.org/2000/svg" viewBox="0 0 400 454.9">
  <defs>
    <style>
      .cls-1 {
        fill: #8d4087;
        fill-rule: evenodd;
      }
    </style>
  </defs>
  <g id="Layer_1-2" data-name="Layer 1">
    <path class="cls-1" d="M149.87,267.86c.33-3.01-.41-8.14.41-10.61.75-2.31.36-22.53.36-26.49,0-1.66.62-4,.62-8.76l-.09-8.78c.06-.72.38-1.02.49-2.04.2-1.81-.09-4.25.01-6.14l.32-7.81c.2-.8.67-.77.27-1.89l-9.89-11.47c-2.24-3.19-5.06-5.62-7.25-8.74-2.73-.03-3.84,1.74-6.15,2.55-.77.27-1.13.61-1.88.98-3.92,1.89-11.39,1.64-15.39.91-6.81-1.23-12.29-5.79-16.63-10.98-3.28-3.92-5.34-10.14-5.34-15.27,0-2.93.16-5.66.89-8.37.24-.89.57-1.57.94-2.6.82-2.32,2.21-5.02,3.66-6.78l3.16-3.85c.77-.74,2.82-2.33,3.74-2.93.75-.49,1.43-.8,2.21-1.27.81-.48,1.36-.82,2.31-1.2l4.77-1.64c1.29-.33,1.93.05,3.21-.19,2.98-.55,2.14-1.14,5.63-.09,1.21.36,2.1-.04,3.27.19,5.14,1.03,9.7,3.74,13.59,7.33l3.05,3.64c3.23,4.64,3.69,7.33,5.28,12.24l.19,7.95c-.09,1.93-2.28,7.48-3.25,9.41-.84,1.65-.93,2.06.28,3.54l3.72,4.17c2.33,2.95,6.35,6.99,8.27,9.51,2.03,2.66,6.98,7.36,7.55,10.2.13.65.08,1.84.08,2.54,0,1.56.22,3.64-.27,4.94-1.52,4.08.49,11.12-.43,14.79-1.23,4.86-.41,16.09-.6,21.76l-.26,8.05c-.72,3.91-.23,8.16-.21,12.12.01,3.15-.56,4.29-.56,7.88l-.16,8.78c-.03,2.98-1.28,5.79-.49,9.23.43,1.87,6.44,9.5,7.75,11.77,1.36,2.36,2.08,1.43,1.25,4.57-.78,2.94-1.21,6.68-1.61,8.01-.84,2.84-3.4,12.8-3.8,16.05-.13,1.09-.05.47-.26,1.2l-2.18,9.53c-.27,1.51-1.18,3.33-1.41,5.05l-.66,4.25c-.53,2.25-.58,2.17-.04,4.45.15.63.05.55.18,1.25.32,1.81,1.19,3.36,1.8,4.94l1.34,3.72c.31.75.7,1.29,1.06,2.09l7.3,18.48c1.27,4.28,4.28,10.77,6.14,15.34l.35,1.07c1.04,3.59,4.48,10.63,5.94,15.09.19.59.24.63.54,1.26l6.49,15.97c.35.33-.12.12.54.36.44-.5.13.14.34-.65l.09-2.57c-.02-2.16.39-4.86-.22-6.92-.84-2.82-.35-19.74-.35-23.47,0-2.55-.62.6-.62-6.13v-18.41c0-2.26-.6-2.95-.6-5.26v-19.87c0-1.85-.31-2.5-.18-4.45.37-5.32-.14-13.85-.09-19.52.02-2.72-.58-3.54-.58-6.71l.02-19.87c0-1.79-.54-1.71-.5-3.23l-.12-11.97c0-2.63,0-5.26,0-7.89,0-1.53.15-2.64-.24-3.9-.34-1.09-.26.05-.29-1.63l-.33-46.18c0-1.6-.58-2.91-.58-4.68,0-4.8.37-19.11-.03-21.61-.28-1.76-.38-1.31-.38-3.53,0-4.74.47-19.04-.34-22.1-.72-2.74-.26-8.82-.26-12.09,0-1.74-.22-1.61.64-3.25.98-1.87,2.58-3.6,4.03-5.26l6.34-7.37c.79-.87,1.21-1.57,2.07-2.58,1.28-1.51,1.55-.87,1.63-3.16l-2.93-3.6c-1.67-2.48-3.29-5.79-4-8.78-.58-2.41-1.36-7.88-.62-10.31.33-1.1.24-1.7.49-2.74l3.98-8.86c.85-1.4,1.82-2.48,2.86-3.52,3.02-3,7.25-6.13,11.79-7.44,4-1.16,6.62-1.13,10.43-1.13,1.72,0,8.09,1.85,9.74,3.02.89.63,1,.56,1.8.92.71.31,1.08.8,1.77,1.33,2.92,2.27,4.92,4.26,6.9,7.35.28.44.45.52.77.99,1.02,1.5,1.75,3.62,2.43,5.41,1.6,4.17,1.47,12.77-.03,16.95l-1.12,2.4c-2.81,6.6-7.27,10.25-13.1,13.67l-6.54,2.34c-.54.05-1.17-.09-1.99.01-6.58.86-1.24.71-6.88-.02-2.88-.37-4.83-1.5-7.26-1.36-1.36,1.86-2.88,3.41-4.31,5.28l-6.67,7.9c-3.84,4.75-1.83,2.19-1.84,12.61,0,4.04-.49,19.79.17,21.81.99,2.99.45,6.8.45,10.04,0,2.95-.46,12.35.05,14.56.33,1.42.63.82.55,2.96-.14,3.85-.4,18.96.15,22.65l.68,33.47c-.03,4.97-.37,9.94-.15,14.92.06,1.42.2,1.12.51,2.05.43,1.29.22,19.97.22,23.07,0,2.36.52,1.51.66,3.22.34,3.9-.35,7.73-.22,11.68.14,4.23-.41,9.27.55,13.37.43,1.84.19,16.17.19,19.36,0,1.17-.02,2.34-.03,3.51,0,1.61.33,1.95.33,3.21l-.16,19.29c-.01,2.61.57,3.42.57,5.84l.17,20.45c0,2.46.57,2.61.56,5.83-.01,6.3-.56,13.75-.12,19.89.12,1.74.44,1.74.44,3.79l.24,6.22c.36,3.21-1.46,7.26,2.83,7.97.35.06.37.06.76.18,1.89.59,3.44.16,5.11-.16l6.77-1.37c1.35-.45,1.84-.46,3.48-.75l-.04-42.78c0-1.33.12-3.28-.07-4.55-.21-1.46-.57-1.89-.57-3.93v-43.25c.01-2.17-.41-1.02-.41-5.26,0-6,.43-42.29-.33-44.65-.74-2.29-.28-5.18-.28-7.65,0-9.43.52-37.3-.37-42.77-.35-2.19-.2-14.11-.07-16.25.26-4.42.95-4.83,3.37-7.39l29.97-32.1c2.05-1.89.05-3.13-1.84-7.13-.18-.39-.2-.35-.47-.94-1.36-2.99-1.88-6.73-1.74-10.59.27-6.9,2.85-11.57,6.11-16.67,1.81-2.84,6.63-6,9.53-7.35.54-.25.5-.22,1-.44l2.55-.96c5.05-1.85,11.36-1.85,16.29.05,3.58,1.39,2.52.37,7.37,3.68.66.45,1.06.83,1.83,1.34,2.22,1.48,3.27,3.18,4.84,5.36,4.89,6.8,6.59,15.36,3.94,23.39l-1.65,4.41c-.63,1.16-.6.45-.64,1.7l-1.74-.29c-1.36,4.22-6.98,8.02-10.62,10.06-1.55.86-4.48.92-5.24,2.36-.03.05-.07.16-.11.22-.03.05-.07.14-.11.2-1.32,2.04-8.82.93-10.62.93-1.24,0-4.37-1.31-5.74-1.86-5.16-2.09-3.29-2.88-7.55,1.41l-4.94,5.28c-3.19,3.75-6.74,6.93-9.89,10.54l-2.22,2.73c-.88.93-1.63,1.78-2.59,2.68l-7.35,7.8c-1.5,1.67-1.59.77-1.59,3.61v8.77c0,2.16.47,2.72.49,4.66l-.08,42.97c0,1.79.25,3.15.25,5.26,0,6.38-.38,41.95.05,44.01.22,1.06.56,1.02.61,2.14.31,6.57-.03,29.15-.07,37.42v7.6c0,1.99.36.95.62,2.14.27,1.23-.42,43.98.08,46.61.25,1.33.6,1.34.59,3.27,0,1.45-.08,2.04,1.63,1.64.58-.14,2.03-.59,2.92-.85l2.85-.66c1.23-.37-.26-.2,1.38-.31,2.5-.16,9.56-1.93,11.51-3.42,2.31-1.76,9.39-10.42,11.4-12.83l13.79-15.99c1.25-1.4,1.06-1.67,3.22-3.78l10.24-11.92c2.69-3.46,8.12-8.51,10.16-12,.49-.83.82-1.69,1.09-2.46l.96-6.71c.01-.86.2-2.49.33-3.41.22-1.65.34-4.68.77-6.49.26-1.11.3-2.24.31-3.55.02-2.04.46-1.68.64-3,.75-5.51-1.37-3.61,6.21-8.71,3.05-2.06,5.96-4.19,8.7-6.19,3.24-2.36,11.74-6.88,12.66-11.34.8-3.89-.33-15.3-.97-19.17l-1.46-18.4c-.39-1.65.2-3.89-.28-5.54-.5-1.74-.56-1.03-.47-3.31.09-2.69-.58-4.08-.56-6.72.06-6.47-1.05-2.88,4.62-9.58l14.27-15.49c.56-.6,1.19-1.26,1.86-1.91l10.58-11.59c.72-.88,1.12-1.37,1.77-2.02,1.21-1.2,2.35-2.61,3.65-3.93,1.17-1.21,2.09-2.39,3.49-3.81,2.48-2.53,4.53-5.17,7.13-7.74,2.24-2.21,5.18-5.13,6.88-7.99.45-.76.94-1.62,1.31-2.49.2-.48.33-.89.49-1.27.23-.52.31-.61.6-1.41l9.52-23.19c.59-.99.6-1.5,1.13-2.68,1.27-2.87,2.16-5.82,3.65-8.62,1.94-3.66,2.55-9.33-.75-12.77-2.82-2.93-7.7-1.89-11.23-1.7-1.52.09-1.28.27-2.51.5-1.05.2-1.7-.02-2.66.2-3.38.79-6.81,1.06-10.4,1.55-1.87.25-3.32.47-5.04.82l-5.29.72c-4.77.08-3.92,1.46-7.18-4.03l-13.78-22.1c-.73-1.15-1.59-2.52-2.25-3.6-.45-.73-.71-1.14-1.13-1.78-.28-.43-.26-.44-.55-.93l-7.33-11.61s-.09-.12-.12-.16l-2.38-3.72c-.87-1.42-1.34-2.27-2.23-3.61l-13.82-22.1c-1.48-2.23-1.9-2.4-2.35-5.15l-3.13-16.14c-.48-2.98-.28-3.24-1.17-6.47-.14-.53-.09-.65-.22-1.22-.54-2.49-.83-6.08-1.64-8.59l-.28-1.16c-1.28-8.29-8.1-7.39-14.48-9.52-2.5-.84-6.31-.84-8.87-1.65-1.84-.59-4.42-.8-6.34-1.21-1.72-.36-3.11-1.03-4.74-1.17-4.37-.39-10.66-2.46-12.24-2.6l-22.41-4.38c-7.58-1.01-8.82-4.08-17.81,3.28-1.15.94-2.22,1.73-3.23,2.59-.6.52-1,.72-1.65,1.23-1.7,1.32-1.76,1.57-3.67.48l-20.04-9.74c-.66-.27-1.42-.8-2.05-1.09l-7.93-4.02c.16-2.52.01-2.24-.44-4.18-.39-1.66.16-2.46-.49-4.5-.47-1.46,0-2.91-.31-4.68-.2-1.1-.33-.72-.44-1.8-.09-.91,0-1.56-.13-2.53-.64-4.66-.89-7.66-4.95-9.7-4.44-2.23-7.23-.25-11.94.29-1.63.18-2.58.48-3.93.64l-6.24.71c-1.36.17-.86.37-1.85.56-.94.17-1.08-.1-2.11.2-1.42.41.07.37-1.87.45-3.45.15-6.97,1.05-10.17,1.45-1.34.17-.85.35-1.84.5-5.19.78-6.16.52-12.14,1.89-2.71.61-5.95.28-8.69,1.18l-.43.14c-1.46.29-.13-.35-3.27.52-.07.02-.14.05-.22.06l-1.64.09c-1.17.13-.98.37-1.84.54-2.53.54-5.58.31-8.23,1.06-1.34.37-.07.31-1.87.4-1.49.07-.96.02-2.05.35-.81.25.24.08-.89.21-4,.46-7.46.85-11.53,1.91-1.04.27,0,0-.73.12-.66.12-.87.2-1.56.58-2.07,1.14-3.28,3.01-4.66,4.68-.84,1.01-1.41,1.62-2.11,2.53-1.48,1.92-2.77,3.35-4.11,5.24l-8.36,10.31c-.85,1.08-1.48,1.7-2.11,2.56l-22.76,28.55c-3,3.7-5.65,6.9-8.38,10.32-2.75,3.45-10.87,12.6-12.02,15.96-.19.55-.33,1.01-.6,1.75-1.64,4.44-.97,9.5-1.89,13.89-.44,2.1-1.3,5.9-1.3,8.13,0,1.91-.52,2.21-.58,4.09-.03.86.03,1.47-.12,2.14-.27,1.16-.35.44-.44,1.95-.12,1.84-.57,2.23-.62,4.08-.04,1.44-.18,2.61-.53,4.02-.36,1.49-.09,3.16-.36,4.33l-.54,3.04c0,.11-.04.4-.06.5-.01.07-.04.15-.06.22-.35,1.21-.48.3-.5,2.21-.02,2.26-.46,3.92-.62,6.36-.35,5.39-2.77,10.21,1.74,14.88l19.32,20.34c.05.06.21.25.26.31.04.04.09.11.14.15l16.65,17.48c2.44,2.41,9.59,10.38,11.95,11.4.47.2.49.2.84.35.09.03.33.14.42.17.98.43.68.56,2.11.63,4.56.2,3.63-.4,6.15-.64.74-.08,1.55,0,2.31,0,2.61.03,1.86-.71,4.05-.67,2.11.03,2.43.14,4.35-.31,2.52-.59,6.02-.1,8.73-.54l4.09-.53c.8,0,1.53.06,2.29-.1.62-.14,1-.46,1.72-.5,1.41-.07,2.58.2,4.12-.05,2.3-.38,1.32-.47,4.1-.49,4.12-.03,8.8-.39,12.9-1.18l12.97-.98c1.03.07,2.58.88,3.4,1.27.94.45.76.46,1.54.86.6.31.96.4,1.59.69l9.3,4.68c.07.04.3.18.38.22,3.39,1.9,1.51,2.95,2.1,6.52,1.22,7.25,1.01,14.56,1.69,21.69.38,3.98-.37,6.85.75,10.1l.18.7c.62,2.42,3.54,6.68,5.28,8.73.55.65.49.79,1.5.89v.03ZM236.12,114.17l-.03-2.34c-.43-2.71-2.66-7.65-4.85-9.84-.79-.79-1.21-1.21-2.17-1.93-2.05-1.54-1.34-.78-2.83-1.57-5.41-2.89-13.25-2-17.84,1.73-2.48,2.01-4.47,4.47-5.46,7.43-.16.49-.15.59-.29,1.17-.49,2.01-1.51,4.97-1.09,6.35.37,1.21.09-.22.43.94.45,1.5-.45,1.34,2.01,6.24.96,1.91,1.64,2.36,2.73,3.65,1.91,2.25,5.3,3.58,7.98,4.62,1.94.75,6.22.61,8.84-.21,2.26-.71,5.42-2.34,6.95-3.87.33-.32.51-.55.85-.9.71-.72.79-.76,1.44-1.78,1.65-2.58,3.3-6.73,3.3-9.66v-.02ZM257.34,183.13c0,3.7-.17,3.3.83,6.59.07.22.12.44.2.67,2.15,6.07,8.12,10.44,14.56,10.43,3.7,0,5.99.26,9.34-1.59.89-.5,3.99-2.73,4.67-3.51,1.65-1.89,2.81-3.76,3.69-6.24.1-.29.13-.41.22-.67.77-2.01.63-2.95.63-5.39,0-4.11-2.12-9.27-4.84-11.7-.57-.51-.69-.41-1.24-.8-1.3-.94-.91-1.34-3.76-2.66-6.47-2.99-14.16-1.76-19.24,3.12-3.38,3.26-5.08,7.18-5.08,11.75h0ZM117.54,169.96c8.96,0,15.72-5.83,17.51-13.7.38-1.65,1.04-4.01.63-6.03l-1.04-3.8c-1.28-3.08-2.92-5.83-5.48-8-4.98-4.23-11.87-5.34-17.99-2.93-.31.12-.08.03-.51.16-.18.05-.17,0-.51.14l-3.05,1.79c-3.61,2.42-7.14,8.29-7.19,12.81-.01,1.19,0,2.34.02,3.52.03,2.89,1.1,4.92,2.47,7.56.75,1.46.67.87,1.53,2,3.21,4.23,7.95,6.48,13.61,6.48h0Z"/>
  </g>
</svg>